<svg xmlns="http://www.w3.org/2000/svg" height="512" width="512" version="1.1" viewBox="0 0 512 512">
	<path fill="#ffffff" d="m512,256.05a256,256,0,0,1,-512,0,256,256,0,1,1,512,0z"/>
	<path fill="#00aacc" d="M256.12,50.031c-111.03,0-200.94,72.309-200.94,161.47,0,32.127,11.72,62.041,31.812,87.156,0.942,0.942,3.049,3.974,3.781,5.125,0,0-1.052-1.655-1.156-1.969,2.407,3.453,3.75,7.428,3.75,11.719,0,1.465-18.719,60.688-18.719,60.688-1.36,4.604,2.182,9.318,7.938,10.469,0.837,0.209,1.694,0.219,2.531,0.219,1.36,0,2.619-0.217,3.875-0.531l1.656-0.625,52.969-23.031c0.942-0.419,9.422-3.644,10.469-4.063,0.523-0.209,0.625-0.219,0.625-0.219,3.396-1.114,7.151-1.688,11.094-1.688,3.767,0,7.433,0.516,10.781,1.563,0.105,0,0.188,0.02,0.188,0.125l1.594,0.531c24.174,8.267,50.622,10.75,78.562,10.75,4.988,0,9.95-0.139,14.844-0.406h-6.344c0-46.585-47.312-94.644-47.312-141.97,0-52.269,42.355-94.656,94.625-94.656s94.656,42.387,94.656,94.656c0,39.835-33.513,79.171-44.125,119.28,56.315-27.015,93.531-75.449,93.531-133.12,0.209-89.16-89.761-161.47-200.69-161.47zm64.125,98.594c-1.882,0.042-2.557,0.229-3.563,0.781-2.013,1.105-3.441,2.674-4.406,4.844-1.047,2.353-0.998,4.801,0.125,7.219,1.849,3.98,4.519,5.469,10.562,5.844,12.552,0.779,23.208,5.692,31.688,14.656,7.852,8.302,11.899,17.624,13.094,30.156,0.297,3.119,0.717,6.12,0.938,6.688,1.172,3.02,5.27,5.813,8.531,5.813,2.248,0,5.235-1.422,6.813-3.25,2.513-2.913,2.859-7.036,1.406-16.656-4.726-31.302-32.057-55.692-62.844-56.094-0.952-0.012-1.716-0.014-2.344,0z"/>
	<path fill="#333333" d="M290.84,273.25c-2.602,0.131-5.043,2.553-6.813,4.719l-0.219,0.313c-4.459-0.765-10.216,5.154-9.5,11.031,0.801,6.575,3.791,12.546,6.281,18.469,7.227,15.845,14.507,32.02,25.062,45.156l4.281-2.5c3.414,0.595,4.713-5.107,1.313-6.406-9.125-11.759-15.874-25.734-21.969-39.906-2.088-5.578-5.683-10.928-5.781-17.031-0.005-0.32,0.018-0.728,0.031-1.094,2.029-0.785,4.262-2.115,5.781-3.75-0.035,1.232,0.202,2.378,1,2.969,2.433,1.799,5.125,1.611,7.563,0.406,0.648,2.892,2.812,5.393,5.156,5.656,5.31,0.596,5.787-0.5,9.25-4.688,2.414-2.919,5.058-1.58,6.375,0.313,2.695,3.873,9.1,3.092,12.594,1.094,3.255-1.861,5.893,0.367,4.969,4.656-4.353,20.196-9.491,40.382-15.156,60.219,1.694,2.9,5.615-1.82,8.188-1.906,4.913-18.603,10.764-36.954,14.531-55.906,0.96-4.829,3.264-11.299-0.094-15.156-2.43-2.792-6.304-0.169-8.969,1.5-3.379,2.116-6.809,1.143-9.438-2.281-3.063-3.989-1.848,1.03-4.25-1.063-3.789-3.301-8.978,0.114-11.812,3.781-0.509,0.658-1.779,1.655-2.094-0.594-0.833-5.941-5.546-4.211-8.969-1.719-2.882,2.098-2.26-4.047-4.688-5.563-0.882-0.55-1.758-0.763-2.625-0.719zm-13.562,105.91c-6.54,0-11.844,5.273-11.844,11.812,0,6.54,5.304,11.844,11.844,11.844h70.969c6.54,0,11.844-5.304,11.844-11.844s-5.304-11.812-11.844-11.812h-70.969zm0,35.5c-6.54,0-11.844,5.273-11.844,11.812,0,6.54,5.304,11.844,11.844,11.844h2.156c4.876,13.772,17.877,23.656,33.312,23.656,15.436,0,28.468-9.884,33.344-23.656h2.156c6.54,0,11.844-5.304,11.844-11.844s-5.304-11.812-11.844-11.812h-70.969z"/>
</svg>