<svg xmlns="http://www.w3.org/2000/svg" height="120" width="30" version="1.1" viewBox="0 0 30 120">
	<path fill="#ffffff" d="M27,15a12,12,0,1,1,-24,0,12,12,0,1,1,24,0z"/>
	<path fill="#99cc00" d="m24,15a9,9,0,0,1,-18,0,9,9,0,1,1,18,0z"/>
	<path fill="#ffffff" d="M27,45a12,12,0,1,1,-24,0,12,12,0,1,1,24,0z"/>
	<path fill="#e68d00" d="m24,45a9,9,0,0,1,-18,0,9,9,0,1,1,18,0z"/>	<path fill="#ffffff" d="M27,75a12,12,0,1,1,-24,0,12,12,0,1,1,24,0z"/>	<path fill="#b00101" d="m24,75a9,9,0,0,1,-18,0,9,9,0,1,1,18,0z"/>		<path fill="#ffffff" d="m27,105a12,12,0,1,1,-24,0,12,12,0,1,1,24,0z"/>	<path fill="#666666" d="m24,105a9,9,0,0,1,-18,0,9,9,0,1,1,18,0z"/>
</svg>